<?xml version="1.0" encoding="utf-8"?>
<!-- Generator: Adobe Illustrator 21.0.0, SVG Export Plug-In . SVG Version: 6.00 Build 0)  -->
<svg version="1.1" xmlns="http://www.w3.org/2000/svg" xmlns:xlink="http://www.w3.org/1999/xlink" x="0px" y="0px"
	 viewBox="0 0 800 600" style="enable-background:new 0 0 800 600;" xml:space="preserve">
<style type="text/css">
	.st0{fill:#84898C;}
	.st1{fill:#0F4C81;}
</style>
<g id="레이어_1">
	<g id="be">
		<g id="B">
			<path class="st0" d="M666.7,457.5H414.2v0.1l-14.7,0c-2.6,0-3.9-1.6-3.9-4.8v-6.4c0-1.4,1.1-2.4,2.2-2c2,0.9,4.4,1.3,7,1.3h27.8
				c10.8,0,16.2-6.8,16.2-20.4v-14.3c0-16.8-7.8-25.1-23.4-25.1h-32.6c-15.6,0-23.4,8.4-23.4,25.1v46c0,16.8,7.8,25.1,23.4,25.1
				h21.5H426h240.7V457.5z M401.2,410.9h15.5c3.1,0,5.7,3.1,5.7,6.8c0,3.8-2.5,6.8-5.7,6.8h-15.5c-3.1,0-5.7-3.1-5.7-6.8
				C395.6,414,398.1,410.9,401.2,410.9z"/>
			<path class="st0" d="M280.7,482.2c-4.6,0-7-2.8-7-8.4V363.1c0-5.6,2.3-8.4,7-8.4h53c17.4,0,26,9.4,26,28.3v11
				c0,9.9-3.2,17.6-9.7,23.1c0.2,0.2,0.4,0.4,0.7,0.6c6.9,7.2,10.4,15.4,10.4,24.7v11.6c0,18.9-8.7,28.3-26,28.3H280.7z
				 M300.3,379.3v25.3h27.6c3.5,0,5.3-2.1,5.3-6.4v-12.6c0-4.2-1.8-6.4-5.3-6.4H300.3z M300.3,428.4v29.1h28.9
				c3.5,0,5.3-2.1,5.3-6.4v-16.4c0-4.2-1.8-6.4-5.3-6.4H300.3z"/>
		</g>
		<g id="B_1_">
			<path class="st1" d="M663.7,449.2H405.7v0.1l-14.7,0c-2.6,0-3.9-1.6-3.9-4.8v-6.4c0-1.4,1.1-2.4,2.2-2c2,0.9,4.4,1.3,7,1.3H424
				c10.8,0,16.2-6.8,16.2-20.4v-14.3c0-16.8-7.8-25.1-23.4-25.1h-32.6c-15.6,0-23.4,8.4-23.4,25.1v46c0,16.8,7.8,25.1,23.4,25.1
				h21.5h11.8h246.3V449.2z M392.7,402.7h15.5c3.1,0,5.7,3.1,5.7,6.8s-2.5,6.8-5.7,6.8h-15.5c-3.1,0-5.7-3.1-5.7-6.8
				S389.6,402.7,392.7,402.7z"/>
			<path class="st1" d="M272.2,473.9c-4.6,0-7-2.8-7-8.4V354.8c0-5.6,2.3-8.4,7-8.4h53c17.4,0,26,9.4,26,28.3v11
				c0,9.9-3.2,17.6-9.7,23.1c0.2,0.2,0.4,0.4,0.7,0.6c6.9,7.2,10.4,15.4,10.4,24.7v11.6c0,18.9-8.7,28.3-26,28.3H272.2z M291.8,371
				v25.3h27.6c3.5,0,5.3-2.1,5.3-6.4v-12.6c0-4.2-1.8-6.4-5.3-6.4H291.8z M291.8,420.1v29.1h28.9c3.5,0,5.3-2.1,5.3-6.4v-16.4
				c0-4.2-1.8-6.4-5.3-6.4H291.8z"/>
		</g>
	</g>
	<g id="let_x27_s">
		<g id="Let_x27_s_back">
			<path id="s" class="st0" d="M557.1,230.6v0.3c0,4.6-2.1,6.9-6.3,6.9h-16.6c-4,0-6.3-1.5-6.8-4.5c-0.2-0.7-0.5-1.3-1-1.6
				c-0.7-0.5-1.7-0.8-3.1-0.8h-21.2c-2.9,0-4.4,1.6-4.4,4.8v2.6c0,3.2,1.5,4.8,4.4,4.8h28.8c17.4,0,26.2,8.4,26.2,25.3v9.9
				c0,16.8-8.7,25.3-26.2,25.3h-36.4c-17.4,0-26.2-8.4-26.2-25.3v-0.3c0-4.6,2.1-6.9,6.3-6.9h16.6c4,0,6.3,1.5,6.8,4.5
				c0.2,0.7,0.5,1.3,1,1.6c0.7,0.5,1.7,0.8,3.1,0.8h21.2c2.9,0,4.4-1.6,4.4-4.8v-2.9c0-3.2-1.5-4.8-4.4-4.8h-28.8
				c-17.4,0-26.2-8.4-26.2-25.3v-9.6c0-16.8,8.7-25.3,26.2-25.3h36.4C548.4,205.3,557.1,213.7,557.1,230.6z"/>
			<path id="_x27_" class="st0" d="M459.1,198.3c0,3.5-0.8,6.8-2.4,9.9l-3.1,6.4c-1.5,2.8-3.7,4.2-6.8,4.2h-8.4
				c-1.9,0-3.1-0.7-3.8-2.1c-0.6-1.2-0.5-2.6,0.3-4.3l4.4-8.8h-4.8c-4.4,0-6.6-2.4-6.6-7.2v-19.5c0-4.8,2.2-7.2,6.6-7.2h17.9
				c4.4,0,6.6,2.4,6.6,7.2V198.3z"/>
			<path id="t" class="st0" d="M414.6,302.7h-10.4c-19.4,0-29.1-9.5-29.1-28.5v-41.1h-8.4c-4.2,0-6.3-2.3-6.3-6.9v-13.4
				c0-4.6,2.1-6.9,6.3-6.9h8.4v-26.1c0-4.7,2.2-7,6.5-7h17.2c4.3,0,6.5,2.3,6.5,7V206h9.4c4.2,0,6.3,2.3,6.3,6.9v13.4
				c0,4.6-2.1,6.9-6.3,6.9h-9.4v36c0,4.3,2,6.4,5.9,6.4h3.5c4.2,0,6.3,2.3,6.3,6.9v13.4C420.9,300.4,418.8,302.7,414.6,302.7z"/>
			<path id="e" class="st0" d="M354.7,279.4c0,6.9-2.1,12.5-6.4,16.9c-4.3,4.3-10.9,6.5-19.8,6.5h-37.2c-17.4,0-26.2-8.4-26.2-25.3
				v-46.2c0-16.8,8.7-25.3,26.2-25.3h36.4c17.4,0,26.2,8.4,26.2,25.3v14.4c0,13.6-6,20.5-18.1,20.5h-31c-4,0-7.4-0.9-10.3-2.6v9.6
				c0,3.2,1.5,4.8,4.4,4.8h21.9c2,0,3.1-0.5,3.5-1.4c0.6-1.4,1.3-2.4,2.2-3c1.1-0.7,2.6-1.1,4.7-1.1h16.9
				C352.6,272.4,354.7,274.7,354.7,279.4z M294.6,239.8c0,3.2,1.5,4.8,4.4,4.8h21.2c2.9,0,4.4-1.6,4.4-4.8v-4.2
				c0-3.2-1.5-4.8-4.4-4.8H299c-2.9,0-4.4,1.6-4.4,4.8V239.8z"/>
			<path class="st0" d="M252.9,275.5h-49.1v-81.3v-12.5V20h-30.4v161.6v12.5v100c0,5.6,2.6,8.5,7.8,8.5h71.7c4.2,0,6.3-2.3,6.3-6.9
				v-13.4C259.2,277.8,257.1,275.5,252.9,275.5z"/>
		</g>
		<g id="let_x27_s_front">
			<path id="s_1_" class="st1" d="M548,224.2v0.3c0,4.6-2.1,6.9-6.3,6.9h-16.6c-4,0-6.3-1.5-6.8-4.5c-0.2-0.7-0.5-1.3-1-1.6
				c-0.7-0.5-1.7-0.8-3.1-0.8H493c-2.9,0-4.4,1.6-4.4,4.8v2.6c0,3.2,1.5,4.8,4.4,4.8h28.8c17.4,0,26.2,8.4,26.2,25.3v9.9
				c0,16.8-8.7,25.3-26.2,25.3h-36.4c-17.4,0-26.2-8.4-26.2-25.3v-0.3c0-4.6,2.1-6.9,6.3-6.9h16.6c4,0,6.3,1.5,6.8,4.5
				c0.2,0.7,0.5,1.3,1,1.6c0.7,0.5,1.7,0.8,3.1,0.8h21.2c2.9,0,4.4-1.6,4.4-4.8v-2.9c0-3.2-1.5-4.8-4.4-4.8h-28.8
				c-17.4,0-26.2-8.4-26.2-25.3v-9.6c0-16.8,8.7-25.3,26.2-25.3h36.4C539.3,198.9,548,207.3,548,224.2z"/>
			<path id="_x27__1_" class="st1" d="M450,191.9c0,3.5-0.8,6.8-2.4,9.9l-3.1,6.4c-1.5,2.8-3.7,4.2-6.8,4.2h-8.4
				c-1.9,0-3.1-0.7-3.8-2.1c-0.6-1.2-0.5-2.6,0.3-4.3l4.4-8.8h-4.8c-4.4,0-6.6-2.4-6.6-7.2v-19.5c0-4.8,2.2-7.2,6.6-7.2h17.9
				c4.4,0,6.6,2.4,6.6,7.2V191.9z"/>
			<path id="t_1_" class="st1" d="M405.5,296.3H395c-19.4,0-29.1-9.5-29.1-28.5v-41.1h-8.4c-4.2,0-6.3-2.3-6.3-6.9v-13.4
				c0-4.6,2.1-6.9,6.3-6.9h8.4v-26.1c0-4.7,2.2-7,6.5-7h17.2c4.3,0,6.5,2.3,6.5,7v26.1h9.4c4.2,0,6.3,2.3,6.3,6.9v13.4
				c0,4.6-2.1,6.9-6.3,6.9H396v36c0,4.3,2,6.4,5.9,6.4h3.5c4.2,0,6.3,2.3,6.3,6.9v13.4C411.8,294,409.7,296.3,405.5,296.3z"/>
			<path id="e_1_" class="st1" d="M345.6,273c0,6.9-2.1,12.5-6.4,16.9c-4.3,4.3-10.9,6.5-19.8,6.5h-37.2c-17.4,0-26.2-8.4-26.2-25.3
				v-46.2c0-16.8,8.7-25.3,26.2-25.3h36.4c17.4,0,26.2,8.4,26.2,25.3v14.4c0,13.6-6,20.5-18.1,20.5h-31c-4,0-7.4-0.9-10.3-2.6v9.6
				c0,3.2,1.5,4.8,4.4,4.8h21.9c2,0,3.1-0.5,3.5-1.4c0.6-1.4,1.3-2.4,2.2-3c1.1-0.7,2.6-1.1,4.7-1.1h16.9
				C343.5,266,345.6,268.3,345.6,273z M285.5,233.3c0,3.2,1.5,4.8,4.4,4.8h21.2c2.9,0,4.4-1.6,4.4-4.8v-4.2c0-3.2-1.5-4.8-4.4-4.8
				h-21.2c-2.9,0-4.4,1.6-4.4,4.8V233.3z"/>
			<path class="st1" d="M243.8,269.1h-49.1v-81.3v-12.5V23.9h-30.4v151.4v12.5v100c0,5.6,2.6,8.5,7.8,8.5h71.7
				c4.2,0,6.3-2.3,6.3-6.9V276C250.1,271.4,248,269.1,243.8,269.1z"/>
		</g>
	</g>
	<g>
		<path class="st1" d="M656.6,55.1V335c0,6.3,5.1,11.3,11.3,11.3h3.3c6.3,0,11.3-5.1,11.3-11.3V55.1c0-26-21.1-47.1-47.1-47.1H175.7
			c-6.3,0-11.3,5.1-11.3,11.3V34h471.2C647.1,34,656.6,43.4,656.6,55.1z"/>
		<path class="st1" d="M656.6,449.1v99.5c0,11.6-9.4,21.1-21.1,21.1H142c-11.6,0-21.1-9.4-21.1-21.1V55.1c0-11.7,9.5-21.1,21.2-21.1
			c3.3,0,5.9-2.7,5.9-6V14c0-3.3-2.7-6-6-6h0c-26,0-47.1,21.1-47.1,47.1v493.5c0,26,21.1,47.1,47.1,47.1h493.5
			c26,0,47.1-21.1,47.1-47.1v-88.1c0-6.3-5.1-11.3-11.3-11.3H656.6z"/>
	</g>
</g>
<g id="버스">
</g>
</svg>
